<?xml version="1.0" standalone="no"?>
<!DOCTYPE svg PUBLIC "-//W3C//DTD SVG 20010904//EN"
 "http://www.w3.org/TR/2001/REC-SVG-20010904/DTD/svg10.dtd">
<svg version="1.0" xmlns="http://www.w3.org/2000/svg"
 width="700.000000pt" height="700.000000pt" viewBox="0 0 700.000000 700.000000"
 preserveAspectRatio="xMidYMid meet">
<metadata>
Created by potrace 1.14, written by Peter Selinger 2001-2017
</metadata>
<g transform="translate(0.000000,700.000000) scale(0.100000,-0.100000)"
fill="#000000" stroke="none">
<path d="M5360 4467 l0 -1637 -455 0 -455 0 0 368 0 369 -72 36 c-121 59 -213
164 -260 297 l-23 65 0 575 c0 627 1 647 58 819 l31 95 -76 70 c-42 39 -173
164 -291 279 -118 114 -217 207 -221 207 -3 0 -6 -394 -6 -875 0 -970 1 -955
-65 -1108 -66 -155 -160 -276 -288 -373 -58 -44 -190 -115 -236 -127 -21 -5
-21 -8 -21 -351 l0 -346 -452 -2 -453 -3 0 -875 0 -875 36 -75 c34 -71 57 -96
483 -520 388 -386 452 -446 484 -452 170 -31 569 -33 818 -3 814 95 1539 452
2110 1037 367 377 652 843 814 1338 99 300 152 582 172 912 24 408 -31 849
-157 1243 l-34 110 -721 720 -720 720 0 -1638z"/>
<path d="M1902 5419 l3 -604 23 -42 c12 -24 41 -55 64 -70 36 -24 52 -28 113
-28 62 0 77 4 112 28 22 15 50 46 64 70 l24 42 3 411 c3 384 2 412 -15 431
-10 11 -103 98 -206 193 l-188 172 3 -603z"/>
<path d="M2740 5445 c0 -319 4 -597 9 -618 12 -49 45 -98 89 -128 29 -20 48
-24 107 -24 59 0 78 4 107 24 44 30 77 79 89 128 5 21 9 207 9 413 l0 375
-205 205 -205 205 0 -580z"/>
<path d="M1925 3531 c136 -137 140 -141 143 -111 2 16 2 46 0 65 -3 34 -6 37
-80 69 -42 18 -105 52 -140 76 -59 40 -55 34 77 -99z"/>
</g>
</svg>
