<svg version="1.0" xmlns="http://www.w3.org/2000/svg" width="933.333" height="933.333" viewBox="0 0 700 700"><path d="M536 253.3V417h-91v-73.7l-7.2-3.6c-12.1-5.9-21.3-16.4-26-29.7l-2.3-6.5V246c0-62.7.1-64.7 5.8-81.9l3.1-9.5-7.6-7c-4.2-3.9-17.3-16.4-29.1-27.9C369.9 108.3 360 99 359.6 99c-.3 0-.6 39.4-.6 87.5 0 97 .1 95.5-6.5 110.8-6.6 15.5-16 27.6-28.8 37.3-5.8 4.4-19 11.5-23.6 12.7-2.1.5-2.1.8-2.1 35.1V417l-45.2.2-45.3.3v175l3.6 7.5c3.4 7.1 5.7 9.6 48.3 52 38.8 38.6 45.2 44.6 48.4 45.2 17 3.1 56.9 3.3 81.8.3 81.4-9.5 153.9-45.2 211-103.7 36.7-37.7 65.2-84.3 81.4-133.8 9.9-30 15.2-58.2 17.2-91.2 2.4-40.8-3.1-84.9-15.7-124.3l-3.4-11-72.1-72-72-72v163.8zm-345.8-95.2l.3 60.4 2.3 4.2c1.2 2.4 4.1 5.5 6.4 7 3.6 2.4 5.2 2.8 11.3 2.8 6.2 0 7.7-.4 11.2-2.8 2.2-1.5 5-4.6 6.4-7l2.4-4.2.3-41.1c.3-38.4.2-41.2-1.5-43.1-1-1.1-10.3-9.8-20.6-19.3l-18.8-17.2.3 60.3z"/><path d="M274 155.5c0 31.9.4 59.7.9 61.8 1.2 4.9 4.5 9.8 8.9 12.8 2.9 2 4.8 2.4 10.7 2.4 5.9 0 7.8-.4 10.7-2.4 4.4-3 7.7-7.9 8.9-12.8.5-2.1.9-20.7.9-41.3v-37.5L294.5 118 274 97.5v58zm-81.5 191.4c13.6 13.7 14 14.1 14.3 11.1.2-1.6.2-4.6 0-6.5-.3-3.4-.6-3.7-8-6.9-4.2-1.8-10.5-5.2-14-7.6-5.9-4-5.5-3.4 7.7 9.9z"/></svg>